<?xml version="1.0" encoding="UTF-8" standalone="no"?>
<!DOCTYPE svg PUBLIC "-//W3C//DTD SVG 1.1//EN" "http://www.w3.org/Graphics/SVG/1.1/DTD/svg11.dtd">
<svg width="100%" height="100%" viewBox="0 0 1845 224" version="1.1" xmlns="http://www.w3.org/2000/svg" xmlns:xlink="http://www.w3.org/1999/xlink" xml:space="preserve" xmlns:serif="http://www.serif.com/" style="fill-rule:evenodd;clip-rule:evenodd;stroke-linejoin:round;stroke-miterlimit:2;">
    <g transform="matrix(1,0,0,1,3724.61,857.954)">
        <g>
            <g transform="matrix(1,0,0,1,-2614.72,-635.375)">
                <g transform="matrix(72.6888,0,0,72.6888,0,0)">
                    <path d="M0.27,-0L0.27,-0.624L0.011,-0.624L0.011,-0.723L0.679,-0.723L0.679,-0.624L0.42,-0.624L0.42,-0L0.27,-0Z" style="fill:white;fill-rule:nonzero;"/>
                </g>
                <g transform="matrix(72.6888,0,0,72.6888,57.8437,0)">
                    <path d="M0.09,-0L0.09,-0.723L0.361,-0.723C0.508,-0.723 0.581,-0.663 0.581,-0.543C0.581,-0.499 0.569,-0.458 0.544,-0.422C0.519,-0.385 0.485,-0.357 0.441,-0.337L0.677,-0L0.494,-0L0.315,-0.295L0.232,-0.295L0.232,-0L0.09,-0ZM0.232,-0.395L0.267,-0.395C0.376,-0.395 0.43,-0.439 0.43,-0.527C0.43,-0.591 0.382,-0.624 0.284,-0.624L0.232,-0.624L0.232,-0.395Z" style="fill:white;fill-rule:nonzero;"/>
                </g>
                <g transform="matrix(72.6888,0,0,72.6888,115.687,0)">
                    <path d="M0.407,0.018C0.298,0.018 0.21,-0.016 0.144,-0.085C0.078,-0.154 0.045,-0.246 0.045,-0.361C0.045,-0.478 0.078,-0.57 0.145,-0.638C0.211,-0.707 0.3,-0.741 0.412,-0.741C0.524,-0.741 0.613,-0.707 0.679,-0.638C0.745,-0.57 0.778,-0.478 0.778,-0.363C0.778,-0.245 0.745,-0.152 0.679,-0.084C0.613,-0.016 0.522,0.018 0.407,0.018ZM0.409,-0.082C0.474,-0.082 0.525,-0.107 0.562,-0.157C0.6,-0.208 0.619,-0.277 0.619,-0.363C0.619,-0.447 0.6,-0.515 0.562,-0.565C0.524,-0.616 0.474,-0.642 0.412,-0.642C0.349,-0.642 0.299,-0.616 0.261,-0.565C0.224,-0.515 0.205,-0.447 0.205,-0.362C0.205,-0.278 0.224,-0.21 0.261,-0.158C0.299,-0.107 0.348,-0.082 0.409,-0.082ZM0.318,-0.783L0.436,-0.94L0.568,-0.94L0.412,-0.783L0.318,-0.783Z" style="fill:white;fill-rule:nonzero;"/>
                </g>
                <g transform="matrix(72.6888,0,0,72.6888,183.221,0)">
                    <path d="M-0.033,0.127L-0.034,0.02C0.005,0.035 0.045,0.042 0.086,0.042C0.121,0.042 0.145,0.033 0.158,0.014C0.171,-0.006 0.177,-0.04 0.177,-0.09L0.177,-0.723L0.328,-0.723L0.328,-0.106C0.328,-0.017 0.31,0.047 0.274,0.086C0.238,0.125 0.179,0.145 0.097,0.145C0.056,0.145 0.012,0.139 -0.033,0.127Z" style="fill:white;fill-rule:nonzero;"/>
                </g>
                <g transform="matrix(72.6888,0,0,72.6888,221.33,0)">
                    <path d="M0.09,-0L0.09,-0.723L0.29,-0.723L0.463,-0.214L0.643,-0.723L0.817,-0.723L0.817,-0L0.679,-0L0.679,-0.545L0.502,-0.048L0.381,-0.048L0.208,-0.553L0.208,-0L0.09,-0Z" style="fill:white;fill-rule:nonzero;"/>
                </g>
                <g transform="matrix(72.6888,0,0,72.6888,295.004,0)">
                    <rect x="0.09" y="-0.723" width="0.15" height="0.723" style="fill:white;fill-rule:nonzero;"/>
                </g>
                <g transform="matrix(72.6888,0,0,72.6888,326.796,0)">
                    <path d="M0.011,-0L0.292,-0.723L0.443,-0.723L0.724,-0L0.57,-0L0.495,-0.193L0.196,-0.193L0.121,-0L0.011,-0ZM0.233,-0.289L0.458,-0.289L0.345,-0.577L0.233,-0.289Z" style="fill:white;fill-rule:nonzero;"/>
                </g>
                <g transform="matrix(72.6888,0,0,72.6888,388.011,0)">
                    <path d="M0.05,-0.006L0.05,-0.13C0.128,-0.098 0.194,-0.082 0.25,-0.082C0.288,-0.082 0.319,-0.09 0.341,-0.107C0.363,-0.125 0.375,-0.148 0.375,-0.178C0.375,-0.201 0.368,-0.221 0.354,-0.237C0.34,-0.253 0.313,-0.272 0.274,-0.294L0.226,-0.321C0.161,-0.358 0.115,-0.393 0.088,-0.426C0.062,-0.459 0.048,-0.498 0.048,-0.543C0.048,-0.603 0.07,-0.65 0.114,-0.687C0.158,-0.723 0.216,-0.741 0.288,-0.741C0.345,-0.741 0.41,-0.732 0.482,-0.716L0.482,-0.6C0.409,-0.628 0.35,-0.642 0.307,-0.642C0.274,-0.642 0.247,-0.634 0.227,-0.619C0.207,-0.605 0.197,-0.585 0.197,-0.561C0.197,-0.541 0.204,-0.524 0.218,-0.509C0.232,-0.494 0.259,-0.475 0.297,-0.454L0.349,-0.425C0.419,-0.386 0.467,-0.35 0.493,-0.317C0.52,-0.284 0.533,-0.244 0.533,-0.197C0.533,-0.13 0.508,-0.077 0.458,-0.039C0.408,-0.001 0.34,0.018 0.252,0.018C0.194,0.018 0.127,0.01 0.05,-0.006Z" style="fill:white;fill-rule:nonzero;"/>
                </g>
                <g transform="matrix(72.6888,0,0,72.6888,437.23,0)">
                    <path d="M0.27,-0L0.27,-0.624L0.011,-0.624L0.011,-0.723L0.679,-0.723L0.679,-0.624L0.42,-0.624L0.42,-0L0.27,-0Z" style="fill:white;fill-rule:nonzero;"/>
                </g>
                <g transform="matrix(72.6888,0,0,72.6888,495.074,0)">
                    <path d="M0.407,0.018C0.298,0.018 0.21,-0.016 0.144,-0.085C0.078,-0.154 0.045,-0.246 0.045,-0.361C0.045,-0.478 0.078,-0.57 0.145,-0.638C0.211,-0.707 0.3,-0.741 0.412,-0.741C0.524,-0.741 0.613,-0.707 0.679,-0.638C0.745,-0.57 0.778,-0.478 0.778,-0.363C0.778,-0.245 0.745,-0.152 0.679,-0.084C0.613,-0.016 0.522,0.018 0.407,0.018ZM0.409,-0.082C0.474,-0.082 0.525,-0.107 0.562,-0.157C0.6,-0.208 0.619,-0.277 0.619,-0.363C0.619,-0.447 0.6,-0.515 0.562,-0.565C0.524,-0.616 0.474,-0.642 0.412,-0.642C0.349,-0.642 0.299,-0.616 0.261,-0.565C0.224,-0.515 0.205,-0.447 0.205,-0.362C0.205,-0.278 0.224,-0.21 0.261,-0.158C0.299,-0.107 0.348,-0.082 0.409,-0.082Z" style="fill:white;fill-rule:nonzero;"/>
                </g>
            </g>
            <g>
                <path d="M-3604.25,-718.696L-3636.4,-718.696L-3636.4,-776.934L-3692.36,-776.934L-3692.36,-718.696L-3724.51,-718.696L-3724.51,-856.443L-3692.36,-856.443L-3692.36,-798.868L-3636.4,-798.868L-3636.4,-856.443L-3604.25,-856.443L-3604.25,-718.696Z" style="fill:white;fill-rule:nonzero;"/>
                <path d="M-3461.39,-771.335L-3474.05,-809.056C-3474.87,-811.451 -3475.85,-814.256 -3476.99,-817.47C-3478.06,-820.748 -3479.13,-824.277 -3480.2,-828.059C-3481.21,-824.214 -3482.25,-820.653 -3483.32,-817.375C-3484.39,-814.098 -3485.4,-811.262 -3486.35,-808.867L-3499.01,-771.333L-3506.39,-749.589L-3514.52,-725.575C-3515.15,-723.81 -3516.38,-722.203 -3518.2,-720.753C-3520.03,-719.367 -3522.27,-718.674 -3524.92,-718.674L-3549.88,-718.674L-3496.56,-856.42L-3463.85,-856.42L-3410.53,-718.674L-3435.3,-718.674C-3438.07,-718.674 -3440.37,-719.304 -3442.2,-720.564C-3443.96,-721.888 -3445.19,-723.558 -3445.88,-725.575L-3454.01,-749.588L-3461.39,-771.335Z" style="fill:white;fill-rule:nonzero;"/>
                <path d="M-3269.76,-754.328C-3269.01,-754.328 -3268.25,-754.17 -3267.49,-753.855C-3266.74,-753.603 -3266.01,-753.13 -3265.32,-752.437L-3252.65,-739.107C-3258.2,-731.858 -3265.16,-726.375 -3273.55,-722.657C-3281.87,-719.001 -3291.73,-717.173 -3303.14,-717.173C-3313.6,-717.173 -3322.99,-718.938 -3331.31,-722.467C-3339.57,-726.06 -3346.59,-730.976 -3352.39,-737.216C-3358.13,-743.519 -3362.54,-750.956 -3365.63,-759.528C-3368.72,-768.162 -3370.26,-777.522 -3370.26,-787.606C-3370.26,-797.88 -3368.5,-807.303 -3364.97,-815.874C-3361.44,-824.509 -3356.52,-831.946 -3350.22,-838.186C-3343.85,-844.426 -3336.26,-849.279 -3327.43,-852.745C-3318.61,-856.212 -3308.87,-857.945 -3298.22,-857.945C-3293.05,-857.945 -3288.2,-857.472 -3283.66,-856.527C-3279.06,-855.645 -3274.77,-854.384 -3270.8,-852.745C-3266.83,-851.17 -3263.18,-849.247 -3259.84,-846.978C-3256.49,-844.772 -3253.53,-842.314 -3250.95,-839.604L-3261.73,-825.139C-3262.42,-824.257 -3263.24,-823.437 -3264.18,-822.681C-3265.13,-821.988 -3266.45,-821.641 -3268.16,-821.641C-3269.29,-821.641 -3270.36,-821.893 -3271.37,-822.398C-3272.38,-822.902 -3273.45,-823.501 -3274.58,-824.194C-3275.72,-824.95 -3276.98,-825.738 -3278.37,-826.557C-3279.69,-827.44 -3281.3,-828.228 -3283.19,-828.921C-3285.01,-829.677 -3287.19,-830.307 -3289.71,-830.812C-3292.17,-831.316 -3295.07,-831.568 -3298.41,-831.568C-3304.21,-831.568 -3309.5,-830.528 -3314.29,-828.448C-3319.08,-826.431 -3323.21,-823.501 -3326.68,-819.656C-3330.08,-815.874 -3332.76,-811.273 -3334.71,-805.853C-3336.6,-800.433 -3337.55,-794.35 -3337.55,-787.607C-3337.55,-780.548 -3336.6,-774.276 -3334.71,-768.793C-3332.76,-763.31 -3330.14,-758.677 -3326.87,-754.895C-3323.53,-751.177 -3319.65,-748.34 -3315.24,-746.387C-3310.83,-744.433 -3306.1,-743.456 -3301.06,-743.456C-3298.16,-743.456 -3295.51,-743.582 -3293.11,-743.834C-3290.72,-744.149 -3288.51,-744.653 -3286.5,-745.347C-3284.42,-746.04 -3282.46,-746.922 -3280.64,-747.994C-3278.74,-749.128 -3276.85,-750.515 -3274.96,-752.154C-3274.21,-752.784 -3273.39,-753.288 -3272.5,-753.666C-3271.62,-754.108 -3270.71,-754.328 -3269.76,-754.328L-3269.76,-754.328Z" style="fill:white;fill-rule:nonzero;"/>
                <path d="M-3163.47,-800.646L-3158.36,-800.646C-3153.63,-800.646 -3150.23,-802.127 -3148.15,-805.089L-3117.14,-850.092C-3115.44,-852.55 -3113.52,-854.22 -3111.37,-855.103C-3109.17,-855.985 -3106.49,-856.426 -3103.34,-856.426L-3075.54,-856.426L-3116.38,-800.742C-3117.83,-798.725 -3119.35,-797.055 -3120.92,-795.732C-3122.5,-794.408 -3124.11,-793.306 -3125.74,-792.423C-3123.35,-791.541 -3121.17,-790.312 -3119.22,-788.736C-3117.2,-787.223 -3115.38,-785.175 -3113.74,-782.591L-3072.14,-718.681L-3100.69,-718.681C-3102.52,-718.681 -3104.09,-718.807 -3105.42,-719.059C-3106.68,-719.311 -3107.78,-719.689 -3108.72,-720.193C-3109.67,-720.698 -3110.49,-721.296 -3111.18,-721.99C-3111.88,-722.746 -3112.54,-723.597 -3113.17,-724.542L-3144.37,-772.473C-3145.5,-774.238 -3146.95,-775.467 -3148.72,-776.16C-3150.42,-776.917 -3152.75,-777.295 -3155.71,-777.295L-3163.46,-777.295L-3163.46,-718.68L-3195.42,-718.68L-3195.42,-856.427L-3163.46,-856.427L-3163.47,-800.646Z" style="fill:white;fill-rule:nonzero;"/>
                <path d="M-2929.04,-856.431L-2929.04,-831.851L-2985.57,-831.851L-2985.57,-799.706L-2942.27,-799.706L-2942.27,-776.071L-2985.57,-776.071L-2985.57,-743.265L-2929.04,-743.265L-2929.04,-718.685L-3017.72,-718.685L-3017.72,-856.431L-2929.04,-856.431Z" style="fill:white;fill-rule:nonzero;"/>
                <path d="M-2836.06,-769.635L-2836.06,-718.676L-2868.02,-718.676L-2868.02,-856.423L-2823.2,-856.423C-2813.25,-856.423 -2804.77,-855.383 -2797.77,-853.303C-2790.71,-851.286 -2784.98,-848.45 -2780.57,-844.794C-2776.09,-841.139 -2772.85,-836.822 -2770.83,-831.842C-2768.81,-826.863 -2767.8,-821.443 -2767.8,-815.581C-2767.8,-811.106 -2768.4,-806.884 -2769.6,-802.913C-2770.8,-798.942 -2772.59,-795.255 -2774.99,-791.851C-2777.32,-788.511 -2780.22,-785.517 -2783.69,-782.87C-2787.09,-780.223 -2791.03,-778.049 -2795.5,-776.347C-2793.36,-775.275 -2791.38,-773.952 -2789.55,-772.376C-2787.66,-770.8 -2786.02,-768.878 -2784.63,-766.609L-2755.33,-718.678L-2784.26,-718.678C-2789.61,-718.678 -2793.46,-720.695 -2795.79,-724.728L-2818.67,-764.72C-2819.68,-766.484 -2820.87,-767.745 -2822.26,-768.501C-2823.58,-769.258 -2825.47,-769.636 -2827.93,-769.636L-2836.06,-769.635ZM-2836.06,-791.663L-2823.2,-791.663C-2818.86,-791.663 -2815.17,-792.198 -2812.14,-793.27C-2809.06,-794.404 -2806.53,-795.949 -2804.58,-797.902C-2802.63,-799.856 -2801.21,-802.125 -2800.33,-804.709C-2799.44,-807.357 -2799,-810.193 -2799,-813.218C-2799,-819.269 -2800.99,-823.996 -2804.96,-827.399C-2808.87,-830.803 -2814.95,-832.505 -2823.2,-832.505L-2836.06,-832.505L-2836.06,-791.663Z" style="fill:white;fill-rule:nonzero;"/>
                <path d="M-2701.45,-733.521C-2701.45,-735.79 -2701.04,-737.902 -2700.22,-739.856C-2699.33,-741.809 -2698.17,-743.511 -2696.72,-744.961C-2695.21,-746.41 -2693.44,-747.545 -2691.42,-748.364C-2689.41,-749.247 -2687.2,-749.688 -2684.81,-749.688C-2682.47,-749.688 -2680.3,-749.247 -2678.28,-748.364C-2676.27,-747.545 -2674.5,-746.41 -2672.99,-744.961C-2671.48,-743.511 -2670.31,-741.809 -2669.49,-739.856C-2668.61,-737.902 -2668.17,-735.79 -2668.17,-733.521C-2668.17,-731.252 -2668.61,-729.109 -2669.49,-727.093C-2670.31,-725.139 -2671.48,-723.437 -2672.99,-721.987C-2674.5,-720.538 -2676.27,-719.403 -2678.28,-718.584C-2680.3,-717.764 -2682.47,-717.355 -2684.81,-717.355C-2687.2,-717.355 -2689.41,-717.764 -2691.42,-718.584C-2693.44,-719.403 -2695.21,-720.538 -2696.72,-721.987C-2698.17,-723.437 -2699.33,-725.139 -2700.22,-727.093C-2701.04,-729.11 -2701.45,-731.252 -2701.45,-733.521ZM-2701.45,-798.092C-2701.45,-800.361 -2701.04,-802.472 -2700.22,-804.426C-2699.33,-806.38 -2698.17,-808.082 -2696.72,-809.531C-2695.21,-810.981 -2693.44,-812.115 -2691.42,-812.935C-2689.41,-813.817 -2687.2,-814.258 -2684.81,-814.258C-2682.47,-814.258 -2680.3,-813.817 -2678.28,-812.935C-2676.27,-812.115 -2674.5,-810.981 -2672.99,-809.531C-2671.48,-808.082 -2670.31,-806.38 -2669.49,-804.426C-2668.61,-802.472 -2668.17,-800.361 -2668.17,-798.092C-2668.17,-795.823 -2668.61,-793.68 -2669.49,-791.663C-2670.31,-789.709 -2671.48,-788.007 -2672.99,-786.558C-2674.5,-785.108 -2676.27,-783.974 -2678.28,-783.154C-2680.3,-782.335 -2682.47,-781.925 -2684.81,-781.925C-2687.2,-781.925 -2689.41,-782.335 -2691.42,-783.154C-2693.44,-783.974 -2695.21,-785.108 -2696.72,-786.558C-2698.17,-788.007 -2699.33,-789.709 -2700.22,-791.663C-2701.04,-793.68 -2701.45,-795.823 -2701.45,-798.092Z" style="fill:rgb(255,0,0);fill-rule:nonzero;"/>
                <path d="M-2527.85,-828.454C-2528.8,-826.941 -2529.81,-825.806 -2530.88,-825.05C-2531.89,-824.294 -2533.21,-823.915 -2534.85,-823.915C-2536.3,-823.915 -2537.87,-824.357 -2539.58,-825.239C-2541.21,-826.184 -2543.11,-827.224 -2545.25,-828.359C-2547.33,-829.493 -2549.72,-830.502 -2552.43,-831.384C-2555.14,-832.33 -2558.23,-832.802 -2561.7,-832.802C-2567.68,-832.802 -2572.16,-831.51 -2575.12,-828.926C-2578.02,-826.405 -2579.47,-822.97 -2579.47,-818.621C-2579.47,-815.848 -2578.59,-813.548 -2576.83,-811.72C-2575.06,-809.892 -2572.76,-808.316 -2569.92,-806.993C-2567.02,-805.669 -2563.75,-804.44 -2560.09,-803.306C-2556.37,-802.234 -2552.59,-801.005 -2548.75,-799.619C-2544.9,-798.295 -2541.15,-796.719 -2537.5,-794.892C-2533.78,-793.064 -2530.5,-790.732 -2527.66,-787.896C-2524.76,-785.06 -2522.43,-781.593 -2520.67,-777.496C-2518.9,-773.462 -2518.02,-768.578 -2518.02,-762.842C-2518.02,-756.476 -2519.12,-750.52 -2521.33,-744.974C-2523.53,-739.428 -2526.75,-734.574 -2530.97,-730.415C-2535.13,-726.318 -2540.3,-723.072 -2546.48,-720.677C-2552.59,-718.345 -2559.55,-717.179 -2567.37,-717.179C-2571.66,-717.179 -2576.04,-717.62 -2580.51,-718.503C-2584.92,-719.385 -2589.21,-720.614 -2593.37,-722.19C-2597.53,-723.829 -2601.44,-725.751 -2605.09,-727.957C-2608.75,-730.163 -2611.93,-732.621 -2614.64,-735.331L-2605.19,-750.269C-2604.49,-751.403 -2603.52,-752.317 -2602.26,-753.01C-2601,-753.704 -2599.64,-754.05 -2598.19,-754.05C-2596.3,-754.05 -2594.41,-753.452 -2592.52,-752.254C-2590.57,-751.056 -2588.39,-749.733 -2585.99,-748.283C-2583.54,-746.834 -2580.73,-745.51 -2577.58,-744.312C-2574.43,-743.115 -2570.71,-742.516 -2566.43,-742.516C-2560.63,-742.516 -2556.12,-743.777 -2552.91,-746.298C-2549.69,-748.882 -2548.09,-752.947 -2548.09,-758.494C-2548.09,-761.708 -2548.97,-764.324 -2550.73,-766.341C-2552.5,-768.357 -2554.83,-770.028 -2557.73,-771.351C-2560.56,-772.675 -2563.81,-773.841 -2567.47,-774.849C-2571.12,-775.857 -2574.87,-776.96 -2578.72,-778.158C-2582.56,-779.418 -2586.31,-780.931 -2589.97,-782.696C-2593.62,-784.524 -2596.9,-786.887 -2599.8,-789.786C-2602.63,-792.749 -2604.93,-796.404 -2606.7,-800.753C-2608.47,-805.165 -2609.35,-810.585 -2609.35,-817.014C-2609.35,-822.183 -2608.31,-827.225 -2606.23,-832.141C-2604.15,-837.057 -2601.09,-841.437 -2597.06,-845.282C-2593.02,-849.127 -2588.08,-852.184 -2582.21,-854.452C-2576.35,-856.784 -2569.64,-857.95 -2562.08,-857.95C-2557.85,-857.95 -2553.76,-857.604 -2549.79,-856.91C-2545.75,-856.28 -2541.94,-855.303 -2538.35,-853.98C-2534.75,-852.719 -2531.41,-851.175 -2528.33,-849.347C-2525.17,-847.583 -2522.37,-845.566 -2519.91,-843.297L-2527.85,-828.454Z" style="fill:white;fill-rule:nonzero;"/>
                <path d="M-2427.45,-764.731L-2427.45,-718.69L-2459.4,-718.69L-2459.4,-856.437L-2410.81,-856.437C-2401.1,-856.437 -2392.78,-855.271 -2385.85,-852.939C-2378.86,-850.67 -2373.12,-847.519 -2368.64,-843.485C-2364.11,-839.451 -2360.77,-834.693 -2358.62,-829.209C-2356.48,-823.726 -2355.41,-817.801 -2355.41,-811.435C-2355.41,-804.565 -2356.51,-798.263 -2358.72,-792.527C-2360.92,-786.792 -2364.3,-781.876 -2368.83,-777.779C-2373.37,-773.682 -2379.14,-770.468 -2386.13,-768.136C-2393.07,-765.867 -2401.29,-764.732 -2410.81,-764.732L-2427.45,-764.731ZM-2427.45,-788.839L-2410.81,-788.839C-2402.49,-788.839 -2396.5,-790.824 -2392.85,-794.795C-2389.19,-798.766 -2387.36,-804.312 -2387.36,-811.434C-2387.36,-814.586 -2387.84,-817.453 -2388.78,-820.037C-2389.73,-822.622 -2391.18,-824.827 -2393.13,-826.655C-2395.02,-828.546 -2397.45,-829.996 -2400.41,-831.004C-2403.31,-832.013 -2406.78,-832.517 -2410.81,-832.517L-2427.45,-832.517L-2427.45,-788.839Z" style="fill:white;fill-rule:nonzero;"/>
                <path d="M-2234.75,-771.335L-2247.42,-809.056C-2248.24,-811.451 -2249.21,-814.256 -2250.35,-817.47C-2251.42,-820.748 -2252.49,-824.277 -2253.56,-828.059C-2254.57,-824.214 -2255.61,-820.653 -2256.68,-817.375C-2257.76,-814.098 -2258.76,-811.262 -2259.71,-808.867L-2272.38,-771.333L-2279.75,-749.589L-2287.88,-725.575C-2288.51,-723.81 -2289.74,-722.203 -2291.57,-720.753C-2293.4,-719.367 -2295.63,-718.674 -2298.28,-718.674L-2323.24,-718.674L-2269.92,-856.42L-2237.21,-856.42L-2183.88,-718.674L-2208.65,-718.674C-2211.43,-718.674 -2213.73,-719.304 -2215.55,-720.564C-2217.32,-721.888 -2218.55,-723.558 -2219.24,-725.575L-2227.37,-749.588L-2234.75,-771.335Z" style="fill:white;fill-rule:nonzero;"/>
                <path d="M-2043.1,-754.328C-2042.34,-754.328 -2041.59,-754.17 -2040.83,-753.855C-2040.07,-753.603 -2039.35,-753.13 -2038.66,-752.437L-2025.99,-739.107C-2031.53,-731.858 -2038.5,-726.375 -2046.88,-722.657C-2055.2,-719.001 -2065.06,-717.173 -2076.47,-717.173C-2086.93,-717.173 -2096.32,-718.938 -2104.64,-722.467C-2112.9,-726.06 -2119.93,-730.976 -2125.73,-737.216C-2131.46,-743.519 -2135.88,-750.956 -2138.96,-759.528C-2142.05,-768.162 -2143.6,-777.522 -2143.6,-787.606C-2143.6,-797.88 -2141.83,-807.303 -2138.3,-815.874C-2134.77,-824.509 -2129.86,-831.946 -2123.55,-838.186C-2117.19,-844.426 -2109.59,-849.279 -2100.77,-852.745C-2091.95,-856.212 -2082.21,-857.945 -2071.55,-857.945C-2066.39,-857.945 -2061.53,-857.472 -2057,-856.527C-2052.39,-855.645 -2048.11,-854.384 -2044.14,-852.745C-2040.17,-851.17 -2036.51,-849.247 -2033.17,-846.978C-2029.83,-844.772 -2026.87,-842.314 -2024.28,-839.604L-2035.06,-825.139C-2035.76,-824.257 -2036.58,-823.437 -2037.52,-822.681C-2038.47,-821.988 -2039.79,-821.641 -2041.49,-821.641C-2042.62,-821.641 -2043.7,-821.893 -2044.71,-822.398C-2045.71,-822.902 -2046.79,-823.501 -2047.92,-824.194C-2049.05,-824.95 -2050.32,-825.738 -2051.7,-826.557C-2053.03,-827.44 -2054.63,-828.228 -2056.52,-828.921C-2058.35,-829.677 -2060.53,-830.307 -2063.05,-830.812C-2065.51,-831.316 -2068.4,-831.568 -2071.74,-831.568C-2077.54,-831.568 -2082.84,-830.528 -2087.63,-828.448C-2092.42,-826.431 -2096.55,-823.501 -2100.01,-819.656C-2103.42,-815.874 -2106.09,-811.273 -2108.05,-805.853C-2109.94,-800.433 -2110.88,-794.35 -2110.88,-787.607C-2110.88,-780.548 -2109.94,-774.276 -2108.05,-768.793C-2106.09,-763.31 -2103.48,-758.677 -2100.2,-754.895C-2096.86,-751.177 -2092.99,-748.34 -2088.57,-746.387C-2084.16,-744.433 -2079.43,-743.456 -2074.39,-743.456C-2071.49,-743.456 -2068.85,-743.582 -2066.45,-743.834C-2064.05,-744.149 -2061.85,-744.653 -2059.83,-745.347C-2057.75,-746.04 -2055.8,-746.922 -2053.97,-747.994C-2052.08,-749.128 -2050.19,-750.515 -2048.3,-752.154C-2047.54,-752.784 -2046.72,-753.288 -2045.84,-753.666C-2044.96,-754.108 -2044.04,-754.328 -2043.1,-754.328L-2043.1,-754.328Z" style="fill:white;fill-rule:nonzero;"/>
                <path d="M-1879.99,-856.431L-1879.99,-831.851L-1936.53,-831.851L-1936.53,-799.706L-1893.23,-799.706L-1893.23,-776.071L-1936.53,-776.071L-1936.53,-743.265L-1879.99,-743.265L-1879.99,-718.685L-1968.67,-718.685L-1968.67,-856.431L-1879.99,-856.431Z" style="fill:white;fill-rule:nonzero;"/>
            </g>
        </g>
    </g>
</svg>
